<svg xmlns="http://www.w3.org/2000/svg" height="20" width="20"><style>path{fill:#0B5ED7}</style><path d="M5.042 15.583V14.5h1.187l1.354-4.833q.105-.438.459-.698.354-.261.812-.261h2.292q.437 0 .802.261.364.26.49.698l1.333 4.833h1.187v1.083ZM7.354 14.5h5.292l-1.25-4.521q-.021-.083-.094-.135-.073-.052-.156-.052H8.854q-.083 0-.156.052t-.094.135Zm2.104-7.542V3.375h1.084v3.583ZM14 8.604l-.771-.75 2.542-2.542.75.771Zm.688 3.354v-1.083h3.624v1.083ZM6 8.604 3.5 6.083l.75-.771 2.542 2.542Zm-4.312 3.354v-1.083h3.583v1.083Z"/></svg>